<svg width="355" height="237" viewBox="0 0 355 237" fill="none" xmlns="http://www.w3.org/2000/svg">
<g opacity="0.25">
<path d="M115.617 29.3177C124.385 29.7784 133.143 30.2842 141.9 31.0209C152.022 31.8737 162.892 32.5726 172.995 31.359C174.225 31.2106 179.544 29.4855 180.741 30.4275C193.249 40.2587 187.398 53.3244 213.256 53.9128C217.639 54.0131 267.414 53.0381 258.067 66.4939C244.144 86.5345 195.178 54.469 182.805 79.9982" stroke="black" stroke-opacity="0.9" stroke-width="16" stroke-linecap="round" stroke-linejoin="round"/>
<path d="M176.18 82.9974C155.634 85.4788 133.471 81.6468 114.234 83.3895" stroke="black" stroke-opacity="0.9" stroke-width="16" stroke-linecap="round" stroke-linejoin="round"/>
<path opacity="0.503384" d="M163.105 42.1165C162.47 53.1241 165.019 60.4024 164.341 73.2184" stroke="black" stroke-opacity="0.9" stroke-width="16" stroke-linecap="round" stroke-linejoin="round"/>
<path d="M153.8 71.8773C140.829 71.0548 126.917 71.7698 114.791 73.1665" stroke="black" stroke-opacity="0.9" stroke-width="16" stroke-linecap="round" stroke-linejoin="round"/>
<path d="M150.014 60.0915C138.483 59.6853 126.371 63.5112 114.997 62.2042" stroke="black" stroke-opacity="0.9" stroke-width="16" stroke-linecap="round" stroke-linejoin="round"/>
<path d="M142.202 49.3088C136.986 51.8289 114.535 50.2322 116.448 49.7577" stroke="black" stroke-opacity="0.9" stroke-width="16" stroke-linecap="round" stroke-linejoin="round"/>
<path d="M152.564 40.7754C145.888 42.067 113.069 38.4341 115.982 39.2835" stroke="black" stroke-opacity="0.9" stroke-width="16" stroke-linecap="round" stroke-linejoin="round"/>
</g>
</svg>
