<svg width="304" height="391" viewBox="0 0 304 391" fill="none" xmlns="http://www.w3.org/2000/svg">
<g opacity="0.25">
<path d="M44.0094 250.721C47.4572 257.179 57.8396 262.585 62.6909 256.877C85.5457 229.986 137.7 185.288 157.628 159.41C161.377 147.024 175.343 120.244 174.868 118.251C174.668 117.415 148.161 132.341 140.893 138.19C133.624 144.04 57.7987 219.689 37.8989 235.507" stroke="black" stroke-opacity="0.9" stroke-width="16" stroke-linecap="round" stroke-linejoin="round"/>
<path d="M159.562 157.053C151.688 157.346 148.319 153.357 144.531 144.728" stroke="black" stroke-opacity="0.9" stroke-width="16" stroke-linecap="round" stroke-linejoin="round"/>
<path d="M58.231 261.973C47.1699 272.592 43.2442 280.247 31.1593 265.971" stroke="black" stroke-opacity="0.9" stroke-width="16" stroke-linecap="round" stroke-linejoin="round"/>
<path fill-rule="evenodd" clip-rule="evenodd" d="M167.798 130.885C163.27 128.307 161.102 126.461 161.294 125.349C161.485 124.236 164.057 123.741 169.008 123.863L167.798 130.885Z" stroke="black" stroke-opacity="0.9" stroke-width="16" stroke-linecap="round" stroke-linejoin="round"/>
</g>
</svg>
